<?xml version="1.0" encoding="UTF-8"?>
<svg width="64px" height="64px" viewBox="0 0 64 64" version="1.1" xmlns="http://www.w3.org/2000/svg" xmlns:xlink="http://www.w3.org/1999/xlink">
    <!-- Generator: Sketch 41.2 (35397) - http://www.bohemiancoding.com/sketch -->
    <title>behance</title>
    <desc>Created with Sketch.</desc>
    <defs></defs>
    <g id="Welcome" stroke="none" stroke-width="1" fill="none" fill-rule="evenodd">
        <g id="layout-desktop-white-0.1" transform="translate(-606.000000, -6574.000000)">
            <g id="behance" transform="translate(606.000000, 6574.000000)">
                <path d="M64,32 C64,49.6745747 49.6734322,64 32,64 C14.3265678,64 0,49.6745747 0,32 C0,14.3265678 14.3265678,0 32,0 C49.6734322,0 64,14.3265678 64,32" id="Fill-51" fill="#E3120B"></path>
                <path d="M23.0150088,29.7219823 L16.3442832,29.7219823 L16.3442832,24.3425841 L23.0150088,24.3425841 C24.4943717,24.3425841 25.7081062,25.5540531 25.7081062,27.0311504 C25.7081062,28.5088142 24.4943717,29.7219823 23.0150088,29.7219823 Z M32.4173451,37.7163186 C32.4173451,34.7983717 30.4826195,32.2989735 27.8676814,31.3893805 C29.7627611,30.2141593 31.0506903,28.0930973 31.0506903,25.7069735 C31.0506903,21.9938407 28.0579823,19 24.380531,19 L11,19 L11,45.7469027 L24.3810973,45.7469027 C28.7772743,45.7469027 32.4173451,42.1493097 32.4173451,37.7163186 Z M39.0875044,36.3904425 L53.7950442,36.3904425 L53.7950442,35.7073982 C53.7950442,30.1762124 49.8145841,25.7069735 43.7889558,25.7069735 C37.723115,25.7069735 33.7415221,30.175646 33.7415221,35.7073982 C33.7415221,41.2776637 37.723115,45.7469027 43.7889558,45.7469027 C49.8145841,45.7469027 52.6957168,42.2999646 53.604177,37.7163186 L48.1851327,37.7163186 C47.691823,40.0650619 46.2889204,41.7330265 43.7889558,41.7330265 C41.2482124,41.7330265 39.2766726,39.3831504 39.0875044,36.3904425 Z M48.1851327,33.7007434 L39.352,33.7007434 C39.6572743,31.3129204 41.4379469,29.7219823 43.7889558,29.7219823 C46.0997522,29.7219823 47.8050973,31.352 48.1851327,33.7007434 Z M37.7610619,24.3425841 L49.7777699,24.3425841 L49.7777699,20.3264425 L37.7610619,20.3264425 L37.7610619,24.3425841 Z M16.3442832,33.7007434 L23.0150088,33.7007434 C24.4943717,33.7007434 27.0339823,34.3430088 27.0339823,37.1844956 C27.0339823,38.663292 25.8587611,40.404885 24.3810973,40.404885 L16.3442832,40.404885 L16.3442832,33.7007434 L16.3442832,33.7007434 Z" id="Fill-52" fill="#FFFFFF"></path>
            </g>
        </g>
    </g>
</svg>