<?xml version="1.0" encoding="UTF-8"?>
<svg width="55px" height="34px" viewBox="0 0 55 34" version="1.1" xmlns="http://www.w3.org/2000/svg" xmlns:xlink="http://www.w3.org/1999/xlink">
    <!-- Generator: Sketch 52.5 (67469) - http://www.bohemiancoding.com/sketch -->
    <title>bodyyou</title>
    <desc>Created with Sketch.</desc>
    <defs>
        <path d="M2.95370077,1.46523121 C2.95370077,2.27444929 2.29249004,2.93045638 1.47684735,2.93045638 C0.66121073,2.93045638 0,2.27444929 0,1.46523121 C0,0.656007092 0.66121073,0 1.47684735,0 C2.29249004,0 2.95370077,0.656007092 2.95370077,1.46523121 Z M0.378076327,1.46523121 C0.378076327,2.06729043 0.870009956,2.55535922 1.47684735,2.55535922 C2.08368473,2.55535922 2.57562445,2.06729043 2.57562445,1.46523121 C2.57562445,0.863165957 2.08368473,0.375097163 1.47684735,0.375097163 C0.870009956,0.375097163 0.378076327,0.863165957 0.378076327,1.46523121 Z" id="path-1"></path>
        <path d="M0.00160011062,1.23187908 C0.000547566372,1.22385532 0,1.21566277 0,1.20734965 L0,0.198182624 C0,0.0946031915 0.0846355088,0.0106340426 0.189038164,0.0106340426 C0.293440819,0.0106340426 0.378076327,0.0946031915 0.378076327,0.198182624 L0.378076327,1.20734965 C0.378076327,1.21566277 0.377528761,1.22385532 0.376470133,1.23187908 L0.378076327,1.23187908 C0.378076327,1.83394433 0.870009956,2.32201312 1.47684735,2.32201312 C2.08368473,2.32201312 2.57562445,1.83394433 2.57562445,1.23187908 L2.57894635,1.23187908 C2.57676825,1.22049149 2.57562445,1.20873617 2.57562445,1.1967156 L2.57562445,0.187548582 C2.57562445,0.0839691489 2.66025996,0 2.76466261,0 C2.86906527,0 2.95370077,0.0839691489 2.95370077,0.187548582 L2.95370077,1.1967156 C2.95370077,1.20873617 2.95256305,1.22049149 2.95038496,1.23187908 L2.95370077,1.23187908 C2.95370077,1.96070284 2.41735343,2.56524574 1.7148927,2.67817518 L1.65573119,7.84362518 C1.65573119,7.94720461 1.57109569,8.03117376 1.46669303,8.03117376 C1.36229038,8.03117376 1.27765487,7.94720461 1.27765487,7.84362518 L1.33667644,2.69059362 C0.586778208,2.62055 0,1.99420248 0,1.23187908 L0.00160011062,1.23187908 Z" id="path-3"></path>
        <path d="M0.00160011062,1.23187908 C0.000547566372,1.22385532 0,1.21566277 0,1.20734965 L0,0.198182624 C0,0.0946031915 0.0846355088,0.0106340426 0.189038164,0.0106340426 C0.293440819,0.0106340426 0.378076327,0.0946031915 0.378076327,0.198182624 L0.378076327,1.20734965 C0.378076327,1.21566277 0.377528761,1.22385532 0.376470133,1.23187908 L0.378076327,1.23187908 C0.378076327,1.83394433 0.870009956,2.32201312 1.47684735,2.32201312 C2.08368473,2.32201312 2.57562445,1.83394433 2.57562445,1.23187908 L2.57894635,1.23187908 C2.57676825,1.22049149 2.57562445,1.20873617 2.57562445,1.1967156 L2.57562445,0.187548582 C2.57562445,0.0839691489 2.66025996,0 2.76466261,0 C2.86906527,0 2.95370077,0.0839691489 2.95370077,0.187548582 L2.95370077,1.1967156 C2.95370077,1.20873617 2.95256305,1.22049149 2.95038496,1.23187908 L2.95370077,1.23187908 C2.95370077,2.04110319 2.29249004,2.69711028 1.47684735,2.69711028 C0.66121073,2.69711028 0,2.04110319 0,1.23187908 L0.00160011062,1.23187908 Z" id="path-5"></path>
        <path d="M17.1570796,34 C7.68148617,34 0,26.3888408 0,17 C0,7.61115922 7.68148617,0 17.1570796,0 C26.6326731,0 34.3141593,7.61115922 34.3141593,17 C34.3141593,26.3888408 26.6326731,34 17.1570796,34 Z" id="path-7"></path>
        <path d="M5.90740155,2.93045638 C5.90740155,4.54890461 4.58498617,5.86091277 2.95370077,5.86091277 C1.32241538,5.86091277 0,4.54890461 0,2.93045638 C0,1.31200816 1.32241538,0 2.95370077,0 C4.58498617,0 5.90740155,1.31200816 5.90740155,2.93045638 Z M0.756146571,2.93045638 C0.756146571,4.13458085 1.740026,5.11071844 2.95370077,5.11071844 C4.16737555,5.11071844 5.15125498,4.13458085 5.15125498,2.93045638 C5.15125498,1.72633191 4.16737555,0.750194326 2.95370077,0.750194326 C1.740026,0.750194326 0.756146571,1.72633191 0.756146571,2.93045638 Z" id="path-9"></path>
        <path d="M0,2.41469929 L0,0.396365248 C0,0.189200355 0.169271018,0.0212620567 0.378076327,0.0212620567 C0.586875553,0.0212620567 0.756146571,0.189200355 0.756146571,0.396365248 L0.756146571,2.41134752 C0.756146571,3.61547199 1.740026,4.59160957 2.95370077,4.59160957 C4.16737555,4.59160957 5.15125498,3.61547199 5.15125498,2.41134752 L5.15167478,2.41134752 C5.15139491,2.40540957 5.15125498,2.39943546 5.15125498,2.39343121 L5.15125498,0.375097163 C5.15125498,0.167938298 5.32051991,0 5.52932522,0 C5.73813053,0 5.90740155,0.167938298 5.90740155,0.375097163 L5.90740155,2.39343121 C5.90740155,2.39943546 5.90726162,2.40540957 5.90697566,2.41134752 L5.90740155,2.41134752 C5.90740155,3.8998 4.78888772,5.12906879 3.34027046,5.31693085 L3.40039934,15.0765784 C3.15581969,15.261105 2.90611726,15.4393156 2.65155365,15.610965 L2.58425774,5.31910709 C1.12903927,5.13895532 0.00262223451,3.90852908 6.0840708e-06,2.41656206 C0,2.41594113 0,2.41532021 0,2.41469929 Z" id="path-11"></path>
        <path d="M5.9023031,10.9085323 C5.90568584,10.9659766 5.90740155,11.023867 5.90740155,11.0821493 C5.90740155,12.7005975 4.58498617,14.0126057 2.95370077,14.0126057 C1.32241538,14.0126057 0,12.7005975 0,11.0821493 C0,9.46370709 1.32241538,8.15169291 2.95370077,8.15169291 C3.83060398,8.15169291 4.61825387,8.53081702 5.15921294,9.13286418 L5.22257854,0.375048936 C5.22042478,0.252624823 5.38791925,0.0298886525 5.59668805,0.0262776596 C5.80546294,0.0226666667 5.97645575,0.239549291 5.97860951,0.361973404 L5.9023031,10.9085323 Z M5.14618695,10.9329472 C5.068901,9.79841418 4.11682909,8.90189326 2.95370077,8.90189326 C1.740026,8.90189326 0.756146571,9.87802482 0.756146571,11.0821493 C0.756146571,12.2862738 1.740026,13.2624113 2.95370077,13.2624113 C4.15526825,13.2624113 5.13160343,12.3056489 5.15096294,11.1181145 C5.14733075,11.1061904 5.14533518,11.0939167 5.14511615,11.0813656 L5.14618695,10.9329472 Z" id="path-13"></path>
        <path d="M0.761339934,0.0513556738 L0.815685288,11.1723518 C1.35671737,10.5686709 2.14545631,10.1883592 3.02372843,10.1883592 C4.65500774,10.1883592 5.9774292,11.5003734 5.9774292,13.1188216 C5.9774292,14.7372638 4.65500774,16.049278 3.02372843,16.049278 C1.49777046,16.049278 0.242083352,14.9012234 0.0862922013,13.4282096 C0.0757144358,13.393667 0.0700258296,13.3570085 0.0700258296,13.3190298 L0.00909994469,0.850868085 C0.251291593,0.576492908 0.50218042,0.309846099 0.761339934,0.0513556738 Z M5.22127655,13.1188216 C5.22127655,11.9146972 4.23740321,10.9385596 3.02372843,10.9385596 C1.81005365,10.9385596 0.826174226,11.9146972 0.826174226,13.1188216 C0.826174226,14.3229461 1.81005365,15.2990777 3.02372843,15.2990777 C4.23740321,15.2990777 5.22127655,14.3229461 5.22127655,13.1188216 Z" id="path-15"></path>
        <path d="M5.90740155,2.93045638 C5.90740155,4.54890461 4.58498617,5.86091277 2.95370077,5.86091277 C1.32241538,5.86091277 0,4.54890461 0,2.93045638 C0,1.31200816 1.32241538,0 2.95370077,0 C4.58498617,0 5.90740155,1.31200816 5.90740155,2.93045638 Z M0.756146571,2.93045638 C0.756146571,4.13458085 1.740026,5.11071844 2.95370077,5.11071844 C4.16737555,5.11071844 5.15125498,4.13458085 5.15125498,2.93045638 C5.15125498,1.72633191 4.16737555,0.750194326 2.95370077,0.750194326 C1.740026,0.750194326 0.756146571,1.72633191 0.756146571,2.93045638 Z" id="path-17"></path>
        <path d="M0.00320630531,2.46376418 C0.00108904867,2.44770461 0,2.43132553 0,2.41469929 L0,0.396365248 C0,0.189200355 0.169271018,0.0212620567 0.378076327,0.0212620567 C0.586875553,0.0212620567 0.756146571,0.189200355 0.756146571,0.396365248 L0.756146571,2.41469929 C0.756146571,2.43132553 0.755057522,2.44770461 0.752940265,2.46376418 L0.756146571,2.46376418 C0.756146571,3.66788865 1.740026,4.64402624 2.95370077,4.64402624 C4.16737555,4.64402624 5.15125498,3.66788865 5.15125498,2.46376418 L5.15788662,2.46376418 C5.15353042,2.44098298 5.15125498,2.41747234 5.15125498,2.39343121 L5.15125498,0.375097163 C5.15125498,0.167938298 5.32051991,0 5.52932522,0 C5.73813053,0 5.90740155,0.167938298 5.90740155,0.375097163 L5.90740155,2.39343121 C5.90740155,2.41747234 5.90512002,2.44098298 5.90076383,2.46376418 L5.90740155,2.46376418 C5.90740155,3.9214117 4.83470686,5.13048546 3.4297854,5.35635035 L3.31145631,15.6872522 C3.31145631,15.8944128 3.14218529,16.0623505 2.93338606,16.0623505 C2.72458075,16.0623505 2.55530973,15.8944128 2.55530973,15.6872522 L2.67335288,5.38119326 C1.1735625,5.2411 0,3.98840496 0,2.46376418 L0.00320630531,2.46376418 Z" id="path-19"></path>
        <path d="M0.00320630531,2.46376418 C0.00108904867,2.44770461 0,2.43132553 0,2.41469929 L0,0.396365248 C0,0.189200355 0.169271018,0.0212620567 0.378076327,0.0212620567 C0.586875553,0.0212620567 0.756146571,0.189200355 0.756146571,0.396365248 L0.756146571,2.41469929 C0.756146571,2.43132553 0.755057522,2.44770461 0.752940265,2.46376418 L0.756146571,2.46376418 C0.756146571,3.66788865 1.740026,4.64402624 2.95370077,4.64402624 C4.16737555,4.64402624 5.15125498,3.66788865 5.15125498,2.46376418 L5.15788662,2.46376418 C5.15353042,2.44098298 5.15125498,2.41747234 5.15125498,2.39343121 L5.15125498,0.375097163 C5.15125498,0.167938298 5.32051991,0 5.52932522,0 C5.73813053,0 5.90740155,0.167938298 5.90740155,0.375097163 L5.90740155,2.39343121 C5.90740155,2.41747234 5.90512002,2.44098298 5.90076383,2.46376418 L5.90740155,2.46376418 C5.90740155,4.08221241 4.58498617,5.39422057 2.95370077,5.39422057 C1.32241538,5.39422057 0,4.08221241 0,2.46376418 L0.00320630531,2.46376418 Z" id="path-21"></path>
    </defs>
    <g id="Page-1" stroke="none" stroke-width="1" fill="none" fill-rule="evenodd">
        <g id="iPhone-8" transform="translate(-18.000000, -615.000000)">
            <g id="bodyyou" transform="translate(18.000000, 615.000000)">
                <g id="Group-3" transform="translate(21.294248, 6.872340)">
                    <mask id="mask-2" fill="white">
                        <use xlink:href="#path-1"></use>
                    </mask>
                    <g id="Clip-2"></g>
                    <polygon id="Fill-1" fill-opacity="0.2003" fill="#000000" mask="url(#mask-2)" points="-0.30420354 -0.30141844 3.25790431 -0.30141844 3.25790431 3.23187482 -0.30420354 3.23187482"></polygon>
                </g>
                <g id="Group-6" transform="translate(18.069690, 7.113475)">
                    <mask id="mask-4" fill="white">
                        <use xlink:href="#path-3"></use>
                    </mask>
                    <g id="Clip-5"></g>
                    <polygon id="Fill-4" fill-opacity="0.2003" fill="#000000" mask="url(#mask-4)" points="-0.30420354 -0.30141844 3.25790431 -0.30141844 3.25790431 8.3325922 -0.30420354 8.3325922"></polygon>
                </g>
                <g id="Group-9" transform="translate(24.579646, 7.113475)">
                    <mask id="mask-6" fill="white">
                        <use xlink:href="#path-5"></use>
                    </mask>
                    <g id="Clip-8"></g>
                    <polygon id="Fill-7" fill-opacity="0.2003" fill="#000000" mask="url(#mask-6)" points="-0.30420354 -0.30141844 3.25790431 -0.30141844 3.25790431 2.99852872 -0.30420354 2.99852872"></polygon>
                </g>
                <g id="Group-12">
                    <mask id="mask-8" fill="white">
                        <use xlink:href="#path-7"></use>
                    </mask>
                    <g id="Clip-11"></g>
                    <polygon id="Fill-10" fill="#FE0035" mask="url(#mask-8)" points="-0.30420354 -0.30141844 34.6183628 -0.30141844 34.6183628 34.3014184 -0.30420354 34.3014184"></polygon>
                </g>
                <g id="Group-15" transform="translate(11.377212, 14.588652)">
                    <mask id="mask-10" fill="white">
                        <use xlink:href="#path-9"></use>
                    </mask>
                    <g id="Clip-14"></g>
                    <polygon id="Fill-13" fill="#FFFFFF" mask="url(#mask-10)" points="-0.912610619 -0.904255319 6.82001217 -0.904255319 6.82001217 6.76516809 -0.912610619 6.76516809"></polygon>
                </g>
                <path d="M17.2846127,17.5191101 C17.2846127,15.900663 15.9621961,14.5886525 14.3309132,14.5886525 C12.699629,14.5886525 11.3772124,15.900663 11.3772124,17.5191101 C11.3772124,19.1375559 12.699629,20.4495665 14.3309132,20.4495665 C15.9621961,20.4495665 17.2846127,19.1375559 17.2846127,17.5191101 Z M12.1333596,17.5191101 C12.1333596,16.3149856 13.1172372,15.3388492 14.3309132,15.3388492 C15.5445879,15.3388492 16.5284662,16.3149856 16.5284662,17.5191101 C16.5284662,18.7232333 15.5445879,19.6993697 14.3309132,19.6993697 C13.1172372,19.6993697 12.1333596,18.7232333 12.1333596,17.5191101 Z" id="Stroke-16" stroke="#FFFFFF" stroke-width="0.5"></path>
                <g id="Group-20" transform="translate(24.762168, 15.070922)">
                    <mask id="mask-12" fill="white">
                        <use xlink:href="#path-11"></use>
                    </mask>
                    <g id="Clip-19"></g>
                    <polygon id="Fill-18" fill="#FFFFFF" mask="url(#mask-12)" points="-0.912610619 -0.904255319 6.82001217 -0.904255319 6.82001217 17.054646 -0.912610619 17.054646"></polygon>
                </g>
                <path d="M24.7621727,17.487484 C24.7647917,18.9794523 25.8912056,20.2098761 27.3464283,20.3900267 L27.4166312,31.1266021 C27.4202804,31.3337369 27.5861115,31.1370794 27.794884,31.1334624 C28.0036564,31.1298574 28.1699414,30.9590135 28.1662934,30.7518908 L28.1024386,20.3878552 C29.5510534,20.1999884 30.6695685,18.9707232 30.6695685,17.4822695 L30.669145,17.4822695 C30.6694273,17.4763328 30.6695685,17.4703599 30.6695685,17.4643544 L30.6695685,15.4460205 C30.6695685,15.2388593 30.5002999,15.070922 30.2914958,15.070922 C30.0826905,15.070922 29.9134219,15.2388593 29.9134219,15.4460205 L29.9134219,17.4643544 C29.9134219,17.4703599 29.9135643,17.4763328 29.9138454,17.4822695 L29.9134219,17.4822695 C29.9134219,18.686394 28.9295437,19.6625291 27.7158689,19.6625291 C26.5021929,19.6625291 25.5183153,18.686394 25.5183153,17.4822695 L25.5183153,15.4672845 C25.5183153,15.2601233 25.3490461,15.092186 25.1402418,15.092186 C24.9314375,15.092186 24.7621681,15.2601233 24.7621681,15.4672845 L24.7621681,17.4856189 C24.7621681,17.486241 24.7621697,17.4868631 24.7621727,17.487484 Z" id="Stroke-21" stroke="#FFFFFF" stroke-width="0.5"></path>
                <g id="Group-25" transform="translate(18.069690, 6.450355)">
                    <mask id="mask-14" fill="white">
                        <use xlink:href="#path-13"></use>
                    </mask>
                    <g id="Clip-24"></g>
                    <polygon id="Fill-23" fill="#FFFFFF" mask="url(#mask-14)" points="-0.912610619 -0.878019858 6.89122013 -0.878019858 6.89122013 14.916861 -0.912610619 14.916861"></polygon>
                </g>
                <path d="M23.9719934,17.3588869 C23.9753761,17.4163312 23.9770906,17.4742216 23.9770906,17.5325039 C23.9770906,19.1509582 22.654674,20.4629603 21.023391,20.4629603 C19.3921069,20.4629603 18.0696903,19.1509582 18.0696903,17.5325039 C18.0696903,15.9140617 19.3921069,14.6020475 21.023391,14.6020475 C21.9002918,14.6020475 22.6879417,14.9811716 23.2289032,15.5832188 L23.2922688,6.82540246 C23.2901126,6.7029816 23.4576071,6.48024537 23.6663795,6.47663459 C23.875152,6.47302382 24.0461448,6.68990583 24.048301,6.81232681 L23.9719934,17.3588869 Z M23.2158784,17.3833018 C23.1385937,16.2487688 22.1865194,15.3522479 21.023391,15.3522479 C19.809715,15.3522479 18.8258374,16.3283794 18.8258374,17.5325039 C18.8258374,18.7366284 19.809715,19.712766 21.023391,19.712766 C22.2249597,19.712766 23.2012937,18.7560035 23.2206508,17.5684691 C23.2170222,17.556545 23.2150254,17.5442713 23.2148052,17.5317202 L23.2158784,17.3833018 Z" id="Stroke-26" stroke="#FFFFFF" stroke-width="0.5"></path>
                <g id="Group-30" transform="translate(4.684735, 4.400709)">
                    <mask id="mask-16" fill="white">
                        <use xlink:href="#path-15"></use>
                    </mask>
                    <g id="Clip-29"></g>
                    <polygon id="Fill-28" fill="#FFFFFF" mask="url(#mask-16)" points="-0.912610619 -2.29078014 6.89003982 -2.29078014 6.89003982 16.9535333 -0.912610619 16.9535333"></polygon>
                </g>
                <path d="M9.90601654,17.5195248 C9.90601654,16.3154064 8.92213894,15.3392688 7.70846294,15.3392688 C6.49478816,15.3392688 5.51090996,16.3154064 5.51090996,17.5195248 C5.51090996,18.7236553 6.49478816,19.6997929 7.70846294,19.6997929 C8.92213894,19.6997929 9.90601654,18.7236553 9.90601654,17.5195248 Z M5.50042102,15.573061 C6.04145431,14.9693801 6.83019447,14.5890684 7.70846294,14.5890684 C9.33974712,14.5890684 10.6621637,15.9010766 10.6621637,17.5195248 C10.6621637,19.137973 9.33974712,20.4499872 7.70846294,20.4499872 C6.18250741,20.4499872 4.92681969,19.3019326 4.77102976,17.8289248 C4.76045199,17.7943702 4.75476338,17.7577177 4.75476338,17.719739 L4.68473695,3.38928289 C4.68473695,3.18212173 4.85400675,3.0141844 5.06281084,3.0141844 C5.27161493,3.0141844 5.44088473,3.18212173 5.44088473,3.38928289 L5.50042102,15.573061 Z" id="Stroke-31" stroke="#FFFFFF" stroke-width="0.5"></path>
                <g id="Group-35" transform="translate(42.466814, 14.829787)">
                    <mask id="mask-18" fill="white">
                        <use xlink:href="#path-17"></use>
                    </mask>
                    <g id="Clip-34"></g>
                    <polygon id="Fill-33" fill="#000000" mask="url(#mask-18)" points="-0.30420354 -0.30141844 6.21160509 -0.30141844 6.21160509 6.16233121 -0.30420354 6.16233121"></polygon>
                </g>
                <g id="Group-38" transform="translate(36.017699, 15.312057)">
                    <mask id="mask-20" fill="white">
                        <use xlink:href="#path-19"></use>
                    </mask>
                    <g id="Clip-37"></g>
                    <polygon id="Fill-36" fill="#000000" mask="url(#mask-20)" points="-0.30420354 -0.30141844 6.21160509 -0.30141844 6.21160509 16.363769 -0.30420354 16.363769"></polygon>
                </g>
                <g id="Group-41" transform="translate(49.037611, 15.312057)">
                    <mask id="mask-22" fill="white">
                        <use xlink:href="#path-21"></use>
                    </mask>
                    <g id="Clip-40"></g>
                    <polygon id="Fill-39" fill="#000000" mask="url(#mask-22)" points="-0.30420354 -0.30141844 6.21160509 -0.30141844 6.21160509 5.69563901 -0.30420354 5.69563901"></polygon>
                </g>
            </g>
        </g>
    </g>
</svg>