<?xml version="1.0" encoding="UTF-8"?>
<svg width="64px" height="64px" viewBox="0 0 64 64" version="1.1" xmlns="http://www.w3.org/2000/svg" xmlns:xlink="http://www.w3.org/1999/xlink">
    <!-- Generator: Sketch 41.2 (35397) - http://www.bohemiancoding.com/sketch -->
    <title>dribble</title>
    <desc>Created with Sketch.</desc>
    <defs></defs>
    <g id="Welcome" stroke="none" stroke-width="1" fill="none" fill-rule="evenodd">
        <g id="layout-desktop-white-0.1" transform="translate(-441.000000, -6575.000000)">
            <g id="dribble" transform="translate(441.000000, 6575.000000)">
                <path d="M31.7275752,63.8969156 C14.2046018,63.8969156 0,49.5928532 0,31.9484578 C0,14.3034921 14.2046018,0 31.7275752,0 C49.251115,0 63.4551504,14.3034921 63.4551504,31.9484578 C63.4551504,49.5928532 49.251115,63.8969156 31.7275752,63.8969156 Z" id="Fill-31" fill="#E3120B"></path>
                <path d="M36.6332035,30.9857755 C36.5142655,30.696626 36.3958938,30.4091874 36.2729912,30.1160457 C36.0215221,29.5229184 35.7536283,28.9343537 35.4795044,28.3514921 C35.3747257,28.1262178 35.2705133,27.8992325 35.1629027,27.6773801 C41.7628319,24.9655338 44.4406372,21.0623002 44.4740531,21.0172453 C46.5515044,23.5591378 47.899469,26.7283765 48.2047434,30.1970304 C48.243823,30.6401649 48.2676106,31.0867212 48.272708,31.5372698 C48.0308673,31.4836603 42.375646,30.258054 36.6332035,30.9857755 Z M40.9053451,45.6611128 C40.7343009,44.644812 39.8450973,39.7070276 37.6515398,33.641731 C43.0479292,32.7742824 47.7233274,34.2639443 48.0659823,34.375726 C47.3223363,39.0654236 44.6558584,43.1112359 40.9053451,45.6611128 Z M31.5675752,48.5320769 C27.6924602,48.5320769 24.135646,47.1935483 21.299823,44.9653289 C21.2981239,44.971032 21.1429381,44.8546878 20.9226195,44.6761793 C21.0449558,44.777125 21.1740885,44.8666644 21.299823,44.9653289 C21.3309735,44.8997427 24.5468319,37.9190911 34.4107611,34.4595622 C34.4481416,34.4447341 34.4860885,34.4338981 34.5223363,34.4236324 C36.8744779,40.5750465 37.8452389,45.7284099 38.0916106,47.1998218 C36.0860885,48.0558641 33.8800708,48.5320769 31.5675752,48.5320769 Z M14.8567788,31.7032314 C14.8567788,31.5247229 14.8635752,31.3467847 14.8703717,31.1722684 C15.1654513,31.1791122 23.4220177,31.3667458 32.0257699,28.7746656 C32.504354,29.7202473 32.9636814,30.6772353 33.3810973,31.6347937 C33.1602124,31.6980986 32.9415929,31.7648254 32.7224071,31.8355444 C23.7052035,34.7703837 19.1306195,42.9412821 19.1306195,42.9412821 C16.4766018,39.9682317 14.8567788,36.0279276 14.8567788,31.7032314 Z M24.4369558,16.4849546 C24.6589735,16.7855104 27.7502301,21.0035578 30.6426903,26.1808744 C22.6200354,28.3286795 15.6559292,28.2448432 15.2135929,28.2368588 C16.2993274,23.0241827 19.7740177,18.7023381 24.4369558,16.4849546 Z M27.5650265,15.3659972 C27.5638938,15.3682785 27.5616283,15.3694191 27.5616283,15.3694191 C27.5616283,15.3694191 27.5418053,15.3751223 27.5100885,15.3813957 C27.5287788,15.3751223 27.5480354,15.3722707 27.5650265,15.3659972 Z M31.5675752,14.8772375 C35.7978053,14.8772375 39.6587611,16.4649936 42.6055929,19.0753239 C42.5636814,19.1409101 40.1837876,22.789213 33.8755398,25.1691362 C31.0198938,19.8846004 27.8804956,15.6853734 27.6284602,15.351169 C28.8920354,15.0443397 30.2088496,14.8772375 31.5675752,14.8772375 Z M50.7358584,27.7384038 C50.479292,26.4717349 50.0964248,25.2244567 49.5951858,24.03421 C49.1041416,22.8644946 48.4958584,21.7392637 47.7901593,20.6876035 C47.0906903,19.6444979 46.2881416,18.6629864 45.4029027,17.7715845 C44.5176637,16.8801827 43.5435044,16.0709062 42.5087434,15.3659972 C41.4620885,14.6536742 40.3429381,14.0445781 39.1835752,13.5489747 C38.0009912,13.0470977 36.7640354,12.6581431 35.5055575,12.4009312 C34.2181947,12.1363052 32.8934513,12 31.5675752,12 C30.2416991,12 28.915823,12.1363052 27.6267611,12.4020718 C26.3694159,12.6592838 25.1324602,13.0482384 23.9515752,13.5506856 C22.7905133,14.0451484 21.6724956,14.6548148 20.6264071,15.3682785 C19.5888142,16.0720468 18.616354,16.8813233 17.7294159,17.7732955 C16.8475752,18.664127 16.0438938,19.6456385 15.3427257,20.6887441 C14.6353274,21.7409747 14.028177,22.8667758 13.540531,24.0359209 C13.0398584,25.2261676 12.6541593,26.4717349 12.3964602,27.7384038 C12.1936991,28.7375951 12.0696637,29.7607396 12.0220885,30.7878764 C12.0084956,31.0929947 12,31.3981131 12,31.7032314 C12,33.0406193 12.1336637,34.3745854 12.3964602,35.6737622 C12.6541593,36.9392904 13.0398584,38.1842874 13.540531,39.3733935 C14.028177,40.5425386 14.6353274,41.6700507 15.3427257,42.7228516 C16.0438938,43.7648165 16.8475752,44.7451874 17.7294159,45.6377299 C18.616354,46.5274208 19.5888142,47.336127 20.6264071,48.0410359 C21.6724956,48.7522183 22.7905133,49.3647363 23.9515752,49.8591991 C25.1324602,50.362787 26.3699823,50.7477494 27.6267611,51.0078129 C28.9135575,51.2747201 30.2416991,51.4076035 31.5675752,51.4076035 C32.8945841,51.4076035 34.2181947,51.2758608 35.5055575,51.0078129 C36.7640354,50.7477494 38.0009912,50.362787 39.1835752,49.8591991 C40.3429381,49.3647363 41.4620885,48.7522183 42.5087434,48.0410359 C43.5435044,47.336127 44.5176637,46.5274208 45.4029027,45.6377299 C46.2881416,44.7451874 47.0906903,43.7648165 47.7901593,42.7228516 C48.4958584,41.6700507 49.1041416,40.5425386 49.5951858,39.3733935 C50.0964248,38.1842874 50.479292,36.9392904 50.7358584,35.6737622 C50.9997876,34.3745854 51.1345841,33.0383381 51.1345841,31.7032314 C51.1345841,31.4579961 51.1249558,31.2127608 51.1158938,30.9680958 C51.0756814,29.8793651 50.951646,28.7951969 50.7358584,27.7384038 Z" id="Fill-32" fill="#FFFFFF"></path>
            </g>
        </g>
    </g>
</svg>