<?xml version="1.0" encoding="UTF-8"?>
<svg width="97px" height="22px" viewBox="0 0 97 22" version="1.1" xmlns="http://www.w3.org/2000/svg" xmlns:xlink="http://www.w3.org/1999/xlink">
    <!-- Generator: Sketch 52.5 (67469) - http://www.bohemiancoding.com/sketch -->
    <title>esq2</title>
    <desc>Created with Sketch.</desc>
    <defs>
        <polygon id="path-1" points="0.223043478 0.06 9.75782609 0.06 9.75782609 9.88565217 0.222608696 9.88565217"></polygon>
        <polygon id="path-3" points="0.1044 0.22 8.8398 0.22 8.8398 9.74909091 0.1044 9.74909091"></polygon>
        <polygon id="path-5" points="0 22 96 22 96 0 0 0"></polygon>
        <polygon id="path-7" points="0 22 96 22 96 0 0 0"></polygon>
        <polygon id="path-9" points="0 22 96 22 96 0 0 0"></polygon>
    </defs>
    <g id="Page-1" stroke="none" stroke-width="1" fill="none" fill-rule="evenodd">
        <g id="iPhone-8" transform="translate(-18.000000, -548.000000)">
            <g id="esq2" transform="translate(18.000000, 548.000000)">
                <path d="M26,0 L32.1764955,0 L32.1764955,1.82899492 L27.8581148,1.82899492 L27.8581148,4.00292786 L32.084606,4.00292786 L32.084606,5.8314653 L27.8581148,5.8314653 L27.8581148,8.15545084 L32.1764955,8.15545084 L32.1764955,9.99908505 L26,9.99908505 L26,0 Z M34.5635039,6.89327051 C35.3236444,7.73370308 36.3667825,8.20515118 37.4544223,8.19982616 C38.5181379,8.19982616 39.0364452,7.66274761 39.0364452,7.11102978 C39.0364452,6.38547052 38.2454338,6.13889016 37.1952686,5.87721305 C35.7089462,5.51443341 33.8000169,5.07937234 33.8000169,2.91687634 C33.8000169,1.30609817 35.1089123,0 37.2498941,0 C38.695565,0 39.8956328,0.464339631 40.7954719,1.34955853 L39.7182057,2.85923418 C38.9813963,2.13367492 37.9998306,1.80017384 37.1139655,1.80017384 C36.240804,1.80017384 35.7771222,2.20641383 35.7771222,2.78649527 C35.7771222,3.43977309 36.5410327,3.64289309 37.5907744,3.90411272 C39.0910708,4.26689236 41,4.74587127 41,6.89372798 C41,8.66416579 39.8139062,10 37.3591452,10 C35.6136691,10 34.3589758,9.37554325 33.4997883,8.46104579 L34.5635039,6.89372798 L34.5635039,6.89327051 Z" id="Shape" fill="#535461" fill-rule="nonzero"></path>
                <g id="Group" transform="translate(42.000000, 0.000000)">
                    <g id="Clipped">
                        <mask id="mask-2" fill="white">
                            <use xlink:href="#path-1"></use>
                        </mask>
                        <g id="a"></g>
                        <path d="M5.94086957,7.60347826 L4.90086957,6.3873913 L6.25565217,5.29391304 L7.29478261,6.51 C7.59608696,6.03173913 7.76,5.43043478 7.76,4.77478261 C7.76,3.06608696 6.66565217,1.78173913 4.98347826,1.78173913 C3.30086957,1.78173913 2.22,3.06652174 2.22,4.77478261 C2.22,6.46913043 3.30086957,7.7673913 4.98347826,7.7673913 C5.32521739,7.7673913 5.65304348,7.7126087 5.94086957,7.60347826 M8.56695652,7.99956522 L9.2373913,8.77869565 L7.88304348,9.88565217 L7.15826087,9.02478261 C6.51521739,9.32478261 5.77652174,9.48913043 4.98347826,9.48913043 C2.23347826,9.48913043 0.222608696,7.52130435 0.222608696,4.77478261 C0.223043478,2.02782609 2.23391304,0.06 4.98391304,0.06 C7.74695652,0.06 9.75782609,2.02782609 9.75782609,4.77478261 C9.75782609,6.05913043 9.32,7.18 8.56782609,7.99956522" id="Shape" fill="#535461" fill-rule="nonzero" mask="url(#mask-2)"></path>
                    </g>
                </g>
                <path d="M53,0 L54.9711028,0 L54.9711028,5.8319989 C54.9711028,7.20181178 55.6694736,8.1443016 57.093628,8.1443016 C58.4903697,8.1443016 59.1883055,7.20181178 59.1883055,5.8319989 L59.1883055,0 L61.1598434,0 L61.1598434,5.8910189 C61.1598434,8.3360022 59.8592636,10 57.093628,10 C54.3005797,10 53,8.32090406 53,5.90565951 L53,0 Z M64.7004313,6.43180674 L67.5922523,6.43180674 L66.1528686,1.84426042 L64.7008664,6.43180674 L64.7004313,6.43180674 Z M68.1026504,8.27606716 L64.2039571,8.27606716 L63.6539628,10 L61.6132405,10 L64.9884821,0 L67.3172551,0 L70.6798782,10 L68.6522095,10 L68.1026504,8.27606716 Z M76.1928742,1.82916228 L74.0664329,1.82916228 L74.0664329,4.58800384 L76.1928742,4.58800384 C77.0065524,4.58800384 77.6200745,4.04813103 77.6200745,3.20858306 C77.6200745,2.36903509 77.0065524,1.82916228 76.1928742,1.82916228 Z M75.5506341,6.41670861 L74.0664329,6.41670861 L74.0664329,10 L72.0400696,10 L72.0400696,0 L76.4926733,0 C78.4763946,0 79.6895148,1.36432264 79.6895148,3.22322368 C79.6895148,4.99245093 78.6334737,5.93722835 77.6057155,6.19206661 L79.7465158,10 L77.4203535,10 L75.5506341,6.41670861 Z M80.6533101,0 L87,0 L87,1.82916228 L82.5626256,1.82916228 L82.5626256,4.00329414 L86.9055785,4.00329414 L86.9055785,5.8319989 L82.5630607,5.8319989 L82.5630607,8.1561971 L87,8.1561971 L87,10 L80.6533101,10 L80.6533101,0 Z" id="Shape" fill="#535461" fill-rule="nonzero"></path>
                <g id="Group" transform="translate(88.000000, 0.000000)">
                    <g id="Clipped">
                        <mask id="mask-4" fill="white">
                            <use xlink:href="#path-3"></use>
                        </mask>
                        <g id="c"></g>
                        <path d="M3.8277,7.96363636 C5.69655,7.96363636 6.7869,6.60590909 6.7869,4.99136364 C6.7869,3.30590909 5.76765,2.00545455 3.8277,2.00545455 L2.115,2.00545455 L2.115,7.96363636 L3.82815,7.96363636 L3.8277,7.96363636 Z M0.1044,0.219545455 L3.8277,0.219545455 C6.7869,0.219545455 8.8398,2.11954545 8.8398,4.99090909 C8.8398,7.86272727 6.7869,9.74863636 3.8277,9.74863636 L0.1044,9.74863636 L0.1044,0.22 L0.1044,0.219545455 Z" id="Shape" fill="#535461" fill-rule="nonzero" mask="url(#mask-4)"></path>
                    </g>
                </g>
                <polygon id="Path" fill="#535461" points="26 21.9995449 26 13 33 13 33 14.6865898 28.105375 14.6865898 28.105375 16.5756978 32.896339 16.5756978 32.896339 18.2627427 28.105375 18.2627427 28.105375 22"></polygon>
                <g id="Clipped">
                    <mask id="mask-6" fill="white">
                        <use xlink:href="#path-5"></use>
                    </mask>
                    <g id="e"></g>
                    <path d="M34.3812857,21.5332549 L36.1675714,21.5332549 L36.1675714,13.0028627 L34.3812857,13.0028627 L34.3812857,21.5332549 Z M39.5155714,21.5332549 L39.5155714,14.6019608 L37.0602857,14.6019608 L37.0602857,13.0032941 L43.758,13.0032941 L43.758,14.6019608 L41.3155714,14.6019608 L41.3155714,21.5341176 L39.5155714,21.5332549 Z M51.7371429,21.5332549 L47.4557143,15.9698431 L47.4557143,21.5332549 L45.5442857,21.5332549 L45.5442857,13.0028627 L47.5097143,13.0028627 L51.6698571,18.3618039 L51.6698571,13.0028627 L53.5812857,13.0028627 L53.5812857,21.5332549 L51.7371429,21.5332549 Z M55.3671429,21.5332549 L55.3671429,13.0028627 L61.6187143,13.0028627 L61.6187143,14.6015294 L57.2477143,14.6015294 L57.2477143,16.3921569 L61.5257143,16.3921569 L61.5257143,17.9912549 L57.2477143,17.9912549 L57.2477143,19.9350196 L61.6187143,19.9350196 L61.6187143,21.5336863 L55.3671429,21.5332549 Z" id="Shape" fill="#535461" fill-rule="nonzero" mask="url(#mask-6)"></path>
                </g>
                <g id="Clipped">
                    <mask id="mask-8" fill="white">
                        <use xlink:href="#path-7"></use>
                    </mask>
                    <g id="e"></g>
                    <g id="Group" mask="url(#mask-8)" fill="#535461" fill-rule="nonzero">
                        <g transform="translate(63.000000, 12.941176)" id="Shape">
                            <path d="M0,7.29968627 L0.970714286,5.90980392 C1.55571429,6.52364706 2.46385714,7.0494902 3.609,7.0494902 C4.59214286,7.0494902 5.05242857,6.61121569 5.05242857,6.12290196 C5.05242857,4.67047059 0.273857143,5.68462745 0.273857143,2.54164706 C0.273857143,1.15176471 1.46828571,-3.55271368e-15 3.42214286,-3.55271368e-15 C4.74171429,-3.55271368e-15 5.83671429,0.400313725 6.65785714,1.16470588 L5.67471429,2.49160784 C5.00271429,1.86568627 4.107,1.57752941 3.26057143,1.57752941 C2.514,1.57752941 2.09057143,1.90321569 2.09057143,2.40403922 C2.09057143,3.71886275 6.85714286,2.82980392 6.85714286,5.94776471 C6.85714286,7.4752549 5.76214286,8.62745098 3.53442857,8.62745098 C1.929,8.62745098 0.783857143,8.08866667 0,7.29968627 M7.28571429,7.29968627 L8.25642857,5.90980392 C8.84142857,6.52364706 9.74957143,7.0494902 10.8947143,7.0494902 C11.8778571,7.0494902 12.3381429,6.61121569 12.3381429,6.12290196 C12.3381429,4.67047059 7.55957143,5.68462745 7.55957143,2.54164706 C7.55957143,1.15176471 8.75442857,-3.55271368e-15 10.7078571,-3.55271368e-15 C12.0274286,-3.55271368e-15 13.1224286,0.400313725 13.9435714,1.16470588 L12.9608571,2.49160784 C12.2884286,1.86568627 11.3922857,1.57752941 10.5462857,1.57752941 C9.79971429,1.57752941 9.37628571,1.90321569 9.37628571,2.40403922 C9.37628571,3.71886275 14.1428571,2.82980392 14.1428571,5.94776471 C14.1428571,7.4752549 13.0478571,8.62745098 10.8201429,8.62745098 C9.21471429,8.62745098 8.06957143,8.08866667 7.28571429,7.29968627"></path>
                        </g>
                    </g>
                </g>
                <g id="Clipped">
                    <mask id="mask-10" fill="white">
                        <use xlink:href="#path-9"></use>
                    </mask>
                    <g id="e"></g>
                    <path d="M16.0431429,21.585451 L3.58885714,21.585451 C1.60971429,21.585451 0,19.9915294 0,18.0322353 L0,3.55278431 C0,1.59435294 1.61014286,0 3.58842857,0 L17.0511429,0.00301960784 C18.4568571,0.00301960784 19.6007143,1.29196078 19.6007143,2.87509804 L19.6007143,4.66098039 C19.6007143,5.78901961 18.7178571,6.56031373 17.115,6.83207843 C17.0978571,6.83639216 17.076,6.84372549 17.0155714,6.86098039 C16.9855714,6.86960784 16.8822857,6.89333333 16.8227143,6.88772549 L13.8454286,7.46964706 C13.7768571,7.48345098 13.6941429,7.52011765 13.6941429,7.61631373 L13.695,9.19341176 L18.3158571,9.21541176 C19.1674286,9.32756863 19.7142857,11.3791765 19.7142857,12.1017255 L19.7142857,12.250549 L13.3015714,12.2462353 C11.8958571,12.2462353 10.7515714,10.9581569 10.7515714,9.37415686 L10.7515714,7.35058824 C10.7515714,5.88866667 11.7428571,4.76235294 13.2767143,4.48066667 L16.617,3.87458824 C16.6457143,3.86898039 16.6577143,3.86078431 16.6598571,3.85733333 L16.6628571,3.06058824 L3.59442857,3.04894118 C3.378,3.04635294 3.20185714,3.12356863 3.07671429,3.25254902 C3.01585714,3.31509804 2.94342857,3.41776471 2.94342857,3.55321569 L2.94342857,9.32541176 L8.25514286,9.32541176 L8.25514286,9.47380392 C8.25514286,10.2226667 7.67657143,12.3713333 6.78385714,12.3713333 L2.94342857,12.3704706 L2.94342857,18.0326667 C2.94342857,18.3031373 3.24471429,18.5408235 3.58842857,18.5408235 L16.0431429,18.5408235 C16.3872857,18.5408235 16.6885714,18.3035686 16.6885714,18.0326667 L16.6885714,15.560902 C16.6885714,14.6360392 18.7645714,14.0377255 19.4828571,14.0377255 L19.626,14.0377255 L19.6315714,14.186549 L19.6195714,18.2772549 C19.4901429,20.1144706 17.9164286,21.5858824 16.0431429,21.5858824" id="Path" fill="#535461" mask="url(#mask-10)"></path>
                </g>
            </g>
        </g>
    </g>
</svg>