<?xml version="1.0" encoding="UTF-8"?>
<svg width="64px" height="64px" viewBox="0 0 64 64" version="1.1" xmlns="http://www.w3.org/2000/svg" xmlns:xlink="http://www.w3.org/1999/xlink">
    <!-- Generator: Sketch 41.2 (35397) - http://www.bohemiancoding.com/sketch -->
    <title>linkedin</title>
    <desc>Created with Sketch.</desc>
    <defs></defs>
    <g id="Welcome" stroke="none" stroke-width="1" fill="none" fill-rule="evenodd">
        <g id="layout-desktop-white-0.1" transform="translate(-771.000000, -6574.000000)">
            <g id="linkedin" transform="translate(771.000000, 6574.000000)">
                <path d="M63.5905133,32.1602832 C63.5905133,49.683823 49.3859115,63.8889912 31.8635044,63.8889912 C14.3399646,63.8889912 0.136495575,49.683823 0.136495575,32.1602832 C0.136495575,14.6384425 14.3399646,0.432707965 31.8635044,0.432707965 C49.3859115,0.432707965 63.5905133,14.6384425 63.5905133,32.1602832" id="Fill-21" fill="#E3120B"></path>
                <polyline id="Fill-22" fill="#FFFFFF" points="13.8829027 30.9340885 13.8829027 49.3400354 22.6531681 49.3400354 22.6531681 24.284885 13.8829027 24.284885 13.8829027 30.9340885"></polyline>
                <path d="M18.2683186,11.7573097 C15.8465133,11.7573097 13.8829027,13.7209204 13.8829027,16.1421593 C13.8829027,18.5639646 15.8465133,20.5264425 18.2683186,20.5264425 C20.6901239,20.5264425 22.6531681,18.5639646 22.6531681,16.1421593 C22.6531681,13.7209204 20.6901239,11.7573097 18.2683186,11.7573097" id="Fill-23" fill="#FFFFFF"></path>
                <path d="M51.2741947,31.9779115 C50.6800708,27.2555044 48.5114336,24.284885 42.1267257,24.284885 C38.3399646,24.284885 35.7969558,25.6917522 34.7570973,27.6661239 L34.6489204,27.6661239 L34.6489204,24.284885 L27.6644248,24.284885 L27.6644248,49.3400354 L34.9649558,49.3400354 L34.9649558,36.9217699 C34.9649558,33.6464425 35.584,30.4764602 39.6341239,30.4764602 C43.6259115,30.4764602 43.9470442,34.220177 43.9470442,37.1330265 L43.9470442,49.3400354 L51.4650619,49.3400354 L51.4650619,35.5715398 L51.4661947,35.5715398 C51.4661947,34.2875752 51.4129558,33.0846018 51.2741947,31.9779115" id="Fill-24" fill="#FFFFFF"></path>
            </g>
        </g>
    </g>
</svg>