<?xml version="1.0" encoding="UTF-8"?>
<svg width="64px" height="63px" viewBox="0 0 64 63" version="1.1" xmlns="http://www.w3.org/2000/svg" xmlns:xlink="http://www.w3.org/1999/xlink">
    <!-- Generator: Sketch 41.2 (35397) - http://www.bohemiancoding.com/sketch -->
    <title>twitter</title>
    <desc>Created with Sketch.</desc>
    <defs></defs>
    <g id="Welcome" stroke="none" stroke-width="1" fill="none" fill-rule="evenodd">
        <g id="layout-desktop-white-0.1" transform="translate(-936.000000, -6575.000000)">
            <g id="twitter" transform="translate(936.000000, 6575.000000)">
                <path d="M63.4545841,31.4492632 C63.4545841,48.8179649 49.2505487,62.8985263 31.7281416,62.8985263 C14.2063009,62.8985263 0,48.8179649 0,31.4492632 C0,14.0805614 14.2063009,0 31.7281416,0 C49.2505487,0 63.4545841,14.0805614 63.4545841,31.4492632" id="Fill-29" fill="#E3120B"></path>
                <path d="M50.5844248,20.5284211 C49.2024779,21.1274386 47.7174513,21.5299649 46.1570973,21.7118596 C47.7503009,20.7810526 48.9702655,19.3073684 49.548531,17.5484912 C48.0589735,18.4119298 46.4063009,19.0384561 44.6494159,19.3758596 C43.2453805,17.9134035 41.2409912,17 39.023646,17 C34.7656637,17 31.3141947,20.3695439 31.3141947,24.5233684 C31.3141947,25.1139649 31.3827257,25.6854737 31.511292,26.2378947 C25.1044956,25.9240702 19.4215221,22.9278596 15.6200354,18.3765614 C14.9573805,19.4875789 14.5745133,20.7804912 14.5745133,22.1587368 C14.5745133,24.7681404 15.9389027,27.0710175 18.0050265,28.4206316 C16.7431504,28.3813333 15.5520708,28.042807 14.5122124,27.4797193 L14.5122124,27.5734737 C14.5122124,28.5368421 14.7019469,29.4547368 15.0400708,30.3007719 C15.9819469,32.6603509 18.1018761,34.4422456 20.6986903,34.9536842 C20.0501947,35.1232281 19.371115,35.2175439 18.6654159,35.2175439 C18.1698407,35.2175439 17.687292,35.1698246 17.2149381,35.0805614 C18.1981593,38.0689123 21.0453097,40.2454737 24.4180531,40.3055439 C21.7781947,42.3249123 18.455292,43.5274386 14.8412743,43.5274386 C14.2176991,43.5274386 13.6054513,43.4915088 13,43.4218947 C16.4152212,45.5563509 20.4698761,46.8021053 24.8207434,46.8021053 C36.8748319,46.8021053 44.2818407,38.5247719 46.235823,29.9375439 C46.5818761,28.4200702 46.7602832,26.8913684 46.7602832,25.3957895 C46.7602832,25.0712982 46.7540531,24.7451228 46.7398938,24.4228772 C48.2447434,23.362386 49.5530619,22.0374737 50.5844248,20.5284211" id="Fill-30" fill="#FFFFFF"></path>
            </g>
        </g>
    </g>
</svg>